<svg width="349" height="210" viewBox="0 0 349 210" fill="none" xmlns="http://www.w3.org/2000/svg">
<g filter="url(#filter0_d_5_13096)">
<g clip-path="url(#clip0_5_13096)">
<rect x="2" y="1" width="345" height="206" rx="10" fill="#F9FDFF"/>
<path opacity="0.5" d="M3.44051 27.2688C-32.6545 73.2809 -92.0172 85.691 -92.0172 85.691C-72.1346 213.114 3.44052 217.929 3.44052 217.929C3.44052 217.929 79.0156 213.08 98.8982 85.691C98.8982 85.691 35.7229 71.5855 3.44051 27.2688Z" fill="url(#paint0_linear_5_13096)" fill-opacity="0.5"/>
<circle cx="35.0005" cy="31.9998" r="14" fill="#01527A"/>
<g clip-path="url(#clip1_5_13096)">
<path d="M35.5005 33.8201C33.7472 33.8201 32.3208 35.2465 32.3208 36.9998H33.1802C33.1802 36.515 33.3297 36.0645 33.5849 35.6919L34.5843 36.6912C34.5516 36.7882 34.5337 36.8918 34.5337 36.9998H36.4673C36.4673 36.8918 36.4493 36.7882 36.4167 36.6912L37.4161 35.6919C37.6713 36.0645 37.8208 36.515 37.8208 36.9998H38.6802C38.6802 35.2465 37.2538 33.8201 35.5005 33.8201ZM35.192 36.0835L34.1926 35.0842C34.5653 34.829 35.0157 34.6794 35.5005 34.6794C35.9853 34.6794 36.4357 34.829 36.8083 35.0842L35.809 36.0836C35.7121 36.0509 35.6084 36.033 35.5005 36.033C35.3926 36.033 35.2889 36.0509 35.192 36.0835ZM39.3896 33.1107C38.7905 32.5116 38.0775 32.0682 37.2996 31.7997C38.1328 31.2259 38.6802 30.2654 38.6802 29.1794C38.6802 27.4262 37.2538 25.9998 35.5005 25.9998C33.7472 25.9998 32.3208 27.4262 32.3208 29.1794C32.3208 30.2654 32.8682 31.2259 33.7014 31.7997C32.9235 32.0682 32.2105 32.5116 31.6114 33.1107C30.5726 34.1495 30.0005 35.5307 30.0005 36.9998H30.8599C30.8599 34.4409 32.9416 32.3591 35.5005 32.3591C38.0593 32.3591 40.1411 34.4409 40.1411 36.9998H41.0005C41.0005 35.5307 40.4284 34.1495 39.3896 33.1107ZM33.1802 29.1794C33.1802 27.9 34.2211 26.8591 35.5005 26.8591C36.7799 26.8591 37.8208 27.9 37.8208 29.1794C37.8208 30.4589 36.7799 31.4998 35.5005 31.4998C34.2211 31.4998 33.1802 30.4589 33.1802 29.1794Z" fill="white"/>
</g>
<path opacity="0.2" d="M6.38147 1.00001C-39.1589 59.0616 -114.055 74.7216 -114.055 74.7216C-88.97 235.514 6.38148 241.59 6.38148 241.59C6.38148 241.59 101.733 235.471 126.818 74.7216C126.818 74.7216 47.1115 56.9223 6.38147 1.00001Z" stroke="url(#paint1_linear_5_13096)" stroke-miterlimit="10"/>
</g>
<rect x="2.5" y="1.5" width="344" height="205" rx="9.5" stroke="#F6F7F7"/>
</g>
<defs>
<filter id="filter0_d_5_13096" x="0" y="0" width="349" height="210" filterUnits="userSpaceOnUse" color-interpolation-filters="sRGB">
<feFlood flood-opacity="0" result="BackgroundImageFix"/>
<feColorMatrix in="SourceAlpha" type="matrix" values="0 0 0 0 0 0 0 0 0 0 0 0 0 0 0 0 0 0 127 0" result="hardAlpha"/>
<feOffset dy="1"/>
<feGaussianBlur stdDeviation="1"/>
<feColorMatrix type="matrix" values="0 0 0 0 0.0156863 0 0 0 0 0.0352941 0 0 0 0 0.129412 0 0 0 0.05 0"/>
<feBlend mode="normal" in2="BackgroundImageFix" result="effect1_dropShadow_5_13096"/>
<feBlend mode="normal" in="SourceGraphic" in2="effect1_dropShadow_5_13096" result="shape"/>
</filter>
<linearGradient id="paint0_linear_5_13096" x1="4.61195" y1="26.9285" x2="4.61196" y2="217.271" gradientUnits="userSpaceOnUse">
<stop stop-color="#00B384"/>
<stop offset="1" stop-color="#005F8E"/>
</linearGradient>
<linearGradient id="paint1_linear_5_13096" x1="6.38142" y1="-2067.49" x2="6.38153" y2="520.805" gradientUnits="userSpaceOnUse">
<stop stop-color="#00B384"/>
<stop offset="1" stop-color="#005F8E"/>
</linearGradient>
<clipPath id="clip0_5_13096">
<rect x="2" y="1" width="345" height="206" rx="10" fill="white"/>
</clipPath>
<clipPath id="clip1_5_13096">
<rect width="11" height="11" fill="white" transform="translate(30.0005 25.9998)"/>
</clipPath>
</defs>
</svg>
