<svg width="104" height="44" viewBox="0 0 104 44" fill="none" xmlns="http://www.w3.org/2000/svg">
<g clip-path="url(#clip0_8670_2274)">
<path d="M82.0717 0.577637C98.3157 0.577637 103.494 5.75618 103.494 22.0002C103.494 38.2442 98.3157 43.4227 82.0717 43.4227C65.8277 43.4227 60.6492 38.2456 60.6492 22.0002C60.6492 5.75475 65.8277 0.577637 82.0717 0.577637Z" fill="#F0F1F2"/>
<mask id="mask0_8670_2274" style="mask-type:luminance" maskUnits="userSpaceOnUse" x="60" y="0" width="44" height="44">
<path d="M82.0717 0.577637C98.3157 0.577637 103.494 5.75618 103.494 22.0002C103.494 38.2442 98.3157 43.4227 82.0717 43.4227C65.8277 43.4227 60.6492 38.2442 60.6492 22.0002C60.6492 5.75618 65.8277 0.577637 82.0717 0.577637Z" fill="white"/>
</mask>
<g mask="url(#mask0_8670_2274)">
<path d="M82.0717 43.4225H60.6492V22C72.4801 22 82.0717 31.5916 82.0717 43.4225Z" fill="#114B47"/>
<path d="M82.91 0.577637C88.4528 1.00609 92.8187 5.63621 92.8187 11.2889C92.8187 16.9416 88.6541 21.3575 83.2942 21.9645C94.5567 21.3304 103.494 11.9987 103.494 0.577637H82.91Z" fill="#1B7A5F"/>
<path d="M71.3247 11.2889C71.3247 5.63621 75.6906 1.00609 81.2334 0.577637H60.6492V22.0002H81.2334C75.6906 21.5717 71.3247 16.9416 71.3247 11.2889Z" fill="#1AAA5B"/>
</g>
<path fill-rule="evenodd" clip-rule="evenodd" d="M49.0131 10.0223C50.6887 10.0223 50.6887 7.47876 49.0131 7.47876C47.3376 7.47876 47.3376 10.0223 49.0131 10.0223Z" fill="white"/>
<path fill-rule="evenodd" clip-rule="evenodd" d="M9.28145 10.0107C10.957 10.0107 10.957 7.46857 9.28145 7.46857C7.60591 7.46857 7.60591 10.0107 9.28145 10.0107Z" fill="white"/>
<path fill-rule="evenodd" clip-rule="evenodd" d="M49.9496 12.3208C49.9496 14.6586 49.9496 17.0037 49.9496 19.343C49.9518 19.7319 49.7996 20.1058 49.5262 20.3826C49.2528 20.6595 48.8806 20.8167 48.4913 20.8197H43.9951V16.9637C43.9951 12.8292 38.9241 10.5027 35.8947 13.5918C34.1991 15.3199 34.4965 17.1793 34.4965 19.4015C34.5007 20.2736 34.8502 21.1087 35.4687 21.7241C36.0873 22.3396 36.9245 22.6855 37.7976 22.6863H42.1923L41.7848 23.5103C41.3002 24.49 40.3395 25.007 39.2615 25.007H36.2535C36.0164 25.6032 36.0164 26.2674 36.2535 26.8636H39.2672C41.4517 26.8636 43.4418 25.2469 43.9179 23.1247L44.0179 22.6791H48.5013C48.9386 22.6773 49.3711 22.5893 49.7743 22.4203C50.1775 22.2513 50.5434 22.0045 50.8511 21.6942C51.1587 21.3838 51.4021 21.0159 51.5673 20.6114C51.7325 20.207 51.8163 19.774 51.8138 19.3373V12.3208C51.2153 12.0823 50.548 12.0823 49.9496 12.3208ZM42.1365 20.8197H37.8061C37.617 20.8208 37.4294 20.7844 37.2544 20.7126C37.0794 20.6408 36.9204 20.535 36.7866 20.4014C36.6528 20.2678 36.5469 20.1089 36.4751 19.9341C36.4032 19.7593 36.3668 19.572 36.3679 19.383V17.0179C36.3655 16.6195 36.4417 16.2244 36.5924 15.8554C37.8376 12.8292 42.1365 13.8303 42.1365 16.9622V20.8197Z" fill="white"/>
<path fill-rule="evenodd" clip-rule="evenodd" d="M52.7295 7.47876C51.054 7.47876 51.054 10.0223 52.7295 10.0223C54.4051 10.0223 54.4051 7.47876 52.7295 7.47876Z" fill="white"/>
<path fill-rule="evenodd" clip-rule="evenodd" d="M26.6962 15.2222H22.6217C24.3573 12.6959 26.3074 10.0395 27.9915 7.47884C27.6227 6.95864 27.0706 6.59695 26.446 6.46629C24.5375 9.26117 22.586 12.0803 20.6703 14.8923V17.126H22.556C23.7726 17.126 24.8277 17.126 25.7012 17.1174H26.8606C29.3554 17.1174 30.2246 18.2242 30.2246 20.822H19.1734C19.1544 20.8205 19.1353 20.8205 19.1162 20.822H18.1569C18.1569 16.0834 18.1326 11.3448 18.1326 6.60482C17.5357 6.36861 16.871 6.36861 16.2741 6.60482C16.2741 11.3453 16.2741 16.0844 16.2741 20.822C15.2733 20.822 12.8129 20.812 11.8093 20.812C10.8057 20.812 10.3325 20.3007 10.3325 18.8854V12.7701C9.73553 12.5339 9.07089 12.5339 8.47394 12.7701V18.8354C8.47394 20.4392 7.85919 20.8091 6.65399 20.8091C5.69184 20.8091 4.96129 20.8191 4.00057 20.8191C3.18281 20.8191 2.52517 20.7534 2.52517 19.9337C2.52517 15.6821 2.52517 10.8521 2.52517 6.60196C1.92822 6.36575 1.26358 6.36575 0.666626 6.60196V19.9451C0.666626 21.7746 1.22276 22.6843 3.04842 22.6843C4.20072 22.6843 6.07784 22.6729 7.23014 22.6729C8.38244 22.6729 8.82849 22.4486 9.34888 21.6589C9.80923 22.4372 10.9215 22.6729 11.8794 22.6729H19.1291C19.1502 22.6775 19.1718 22.6799 19.1934 22.68H32.3791C32.4377 21.9759 32.4663 21.7117 32.4663 21.2519C32.4463 16.2805 30.6077 15.2222 26.6962 15.2222Z" fill="white"/>
<path d="M12.1593 37.343H12.9948L14.1806 33.4954L15.3678 37.343H16.2018L17.7608 32.2808C17.4709 32.179 17.1549 32.179 16.865 32.2808L15.7798 36.1527L14.5926 32.2808C14.3285 32.1732 14.0327 32.1732 13.7686 32.2808L12.5828 36.1527L11.486 32.2808C11.2056 32.1675 10.8922 32.1675 10.6118 32.2808L12.1593 37.343ZM50.9781 34.0447V34.1436L49.9933 34.2541C48.374 34.4147 47.5801 34.9481 47.5801 35.9247C47.5801 36.8009 48.2735 37.4233 49.2884 37.4233C50.0234 37.4233 50.6867 37.0619 50.9781 36.4797V37.3401H51.8222V34.0906C51.8222 32.919 50.9609 32.1962 49.7406 32.1962C48.6755 32.1962 47.8414 32.8487 47.6907 33.8497C47.9283 33.9943 48.2104 34.0478 48.4845 34.0002C48.5549 33.3191 49.0473 32.9089 49.7406 32.9089C50.4857 32.9089 50.9781 33.3492 50.9781 34.0404V34.0447ZM48.4343 35.9089C48.4343 35.3755 48.9669 35.0227 49.9933 34.9123L50.9781 34.8019V35.0485C50.9781 36.0667 50.4039 36.7206 49.4191 36.7206C48.8362 36.7206 48.4343 36.3893 48.4343 35.9147V35.9089ZM37.5844 34.0447V34.1436L36.5982 34.2541C34.9803 34.4147 34.185 34.9481 34.185 35.9247C34.185 36.8009 34.8798 37.4233 35.8947 37.4233C36.6297 37.4233 37.293 37.0619 37.5844 36.4797V37.3401H38.4285V34.0906C38.4285 32.919 37.5743 32.1962 36.3469 32.1962C35.2818 32.1962 34.4463 32.8487 34.2955 33.8497C34.5338 33.994 34.8162 34.0475 35.0908 34.0002C35.1612 33.3191 35.6536 32.9089 36.3469 32.9089C37.092 32.9089 37.5844 33.3492 37.5844 34.0404V34.0447ZM35.0434 35.9089C35.0434 35.3755 35.576 35.0227 36.601 34.9123L37.5872 34.8019V35.0485C37.5872 36.0667 37.013 36.7206 36.0282 36.7206C35.4454 36.7206 35.0434 36.3893 35.0434 35.9147V35.9089ZM21.6497 34.0447V34.1436L20.6635 34.2541C19.037 34.4104 18.2475 34.9438 18.2475 35.9204C18.2475 36.7966 18.9409 37.419 19.9572 37.419C20.6908 37.419 21.354 37.0576 21.6469 36.4754V37.3358H22.491V34.0906C22.491 32.919 21.6368 32.1962 20.4094 32.1962C19.3442 32.1962 18.5087 32.8487 18.358 33.8497C18.5956 33.9943 18.8777 34.0478 19.1519 34.0002C19.2222 33.3191 19.7161 32.9089 20.4094 32.9089C21.153 32.9089 21.6469 33.3492 21.6469 34.0404L21.6497 34.0447ZM19.1045 35.9089C19.1045 35.3755 19.6385 35.0227 20.6635 34.9123L21.6497 34.8019V35.0485C21.6497 36.0667 21.0755 36.7206 20.0907 36.7206C19.5079 36.7206 19.1045 36.3893 19.1045 35.9147V35.9089ZM40.6665 30.3162C40.3924 30.2065 40.0865 30.2065 39.8123 30.3162V37.343H40.6665V30.3162ZM0.745218 31.1293C0.640429 30.8678 0.640429 30.5762 0.745218 30.3147H5.97781C6.0826 30.5762 6.0826 30.8678 5.97781 31.1293H3.82448V37.343H2.9086V31.1207L0.745218 31.1293ZM42.906 32.2765C42.634 32.1687 42.331 32.1687 42.059 32.2765V37.343H42.9132V35.1188C42.9132 33.7837 43.5175 32.9677 44.4621 32.9677C45.1799 32.9677 45.6106 33.461 45.6106 34.1436V37.343H46.4647V33.9845C46.4647 32.9089 45.711 32.1962 44.6545 32.1962C44.2986 32.1981 43.9496 32.295 43.6438 32.4768C43.3379 32.6586 43.0861 32.9186 42.9146 33.2301V32.2779L42.906 32.2765ZM24.739 30.3162C24.4624 30.2065 24.1543 30.2065 23.8777 30.3162V37.343H24.739V35.4644L25.4123 34.852L27.323 37.343H28.3897L26.0468 34.2799L28.2188 32.2808H27.0819L24.739 34.3315V30.3162ZM30.0779 30.3162C29.8013 30.2065 29.4931 30.2065 29.2165 30.3162V37.343H30.0779V35.4644L30.7526 34.852L32.6633 37.343H33.7285L31.3857 34.2799L33.5577 32.2808H32.4221L30.0779 34.3315V30.3162ZM9.02262 34.0447V34.1436L8.03639 34.2541C6.41852 34.4147 5.62323 34.9481 5.62323 35.9247C5.62323 36.8009 6.31804 37.4233 7.33297 37.4233C8.06654 37.4233 8.7312 37.0619 9.02262 36.4797V37.3401H9.86672V34.0906C9.86672 32.919 9.01257 32.1962 7.78517 32.1962C6.71999 32.1962 5.8845 32.8487 5.73376 33.8497C5.97178 33.9946 6.25446 34.0481 6.52906 34.0002C6.5994 33.3191 7.0918 32.9089 7.78517 32.9089C8.53022 32.9089 9.02262 33.3492 9.02262 34.0404V34.0447ZM6.47595 35.9089C6.47595 35.3755 7.00854 35.0227 8.03352 34.9123L9.01975 34.8019V35.0485C9.01975 36.0667 8.44552 36.7206 7.46073 36.7206C6.88077 36.7163 6.47595 36.385 6.47595 35.9089Z" fill="white"/>
</g>
<defs>
<clipPath id="clip0_8670_2274">
<rect width="102.828" height="42.8451" fill="white" transform="translate(0.666016 0.577637)"/>
</clipPath>
</defs>
</svg>


