<svg xmlns="http://www.w3.org/2000/svg" width="85" height="92" viewBox="0 0 85 92" fill="none">
  <path d="M21.3403 42.2716L55.1877 30.0458C56.0942 29.7183 57.0945 30.1877 57.4219 31.0942L64.563 50.8644C64.8904 51.7708 64.421 52.7711 63.5145 53.0986L29.6671 65.3244C28.7606 65.6519 27.7603 65.1824 27.4329 64.276L20.2918 44.5058C19.9644 43.5993 20.4338 42.5991 21.3403 42.2716Z" fill="white" stroke="#89AFC6"/>
  <path d="M44.7467 27.5867C44.7467 27.6346 44.7079 27.6734 44.66 27.6734C44.6121 27.6734 44.5732 27.6346 44.5732 27.5867C44.5732 27.5388 44.6121 27.5 44.66 27.5C44.7079 27.5 44.7467 27.5388 44.7467 27.5867Z" fill="#CFCFCF" stroke="#89AFC6"/>
  <path d="M28.3574 31.9633V34.5436" stroke="#89AFC6" stroke-linecap="round" stroke-linejoin="round"/>
  <path d="M27.0642 33.2565H29.6446" stroke="#89AFC6" stroke-linecap="round" stroke-linejoin="round"/>
  <path d="M64.9197 42.7877H67.5001" stroke="#89AFC6" stroke-linecap="round" stroke-linejoin="round"/>
  <path d="M56.309 42.7183L20.7202 48.0625C19.494 48.2466 18.6493 49.3899 18.8334 50.6161L21.9549 71.4033C22.139 72.6295 23.2823 73.4743 24.5085 73.2902L60.0973 67.946C61.3235 67.7619 62.1683 66.6186 61.9841 65.3924L58.8626 44.6051C58.6785 43.3789 57.5352 42.5342 56.309 42.7183Z" fill="white" stroke="#89AFC6" stroke-linecap="round" stroke-linejoin="round"/>
  <path d="M54.9511 50.9275C55.0112 51.1702 55.0114 51.1702 55.0116 51.1701L55.012 51.17L55.013 51.1698L55.0154 51.1692L55.0217 51.1675C55.0265 51.1661 55.0327 51.1643 55.0402 51.1621C55.0551 51.1575 55.075 51.1509 55.0991 51.1419C55.1475 51.1238 55.213 51.0958 55.2899 51.054C55.4437 50.9703 55.6426 50.8315 55.8371 50.6079C56.2302 50.1561 56.5823 49.3859 56.5516 48.098L56.546 47.8638L56.3124 47.8541L56.3123 47.8541L56.3122 47.8541L56.3122 47.8541L56.3107 47.8541L56.3025 47.8536C56.2948 47.8531 56.2828 47.8524 56.2668 47.8511C56.2349 47.8485 56.1873 47.844 56.1274 47.8365C56.0073 47.8213 55.839 47.7939 55.6486 47.7451C55.263 47.6462 54.81 47.4658 54.4741 47.1443L54.2349 46.9154L54.0802 47.2081C53.8432 47.6566 53.4768 47.9863 53.1607 48.2063C53.0038 48.3155 52.8624 48.3956 52.7609 48.4479C52.7103 48.4741 52.6699 48.4932 52.6429 48.5055C52.6293 48.5117 52.6192 48.5161 52.6128 48.5189L52.606 48.5217L52.6052 48.5221L52.6051 48.5221L52.605 48.5222L52.6049 48.5222L52.6048 48.5222L52.3852 48.6112L52.4628 48.8355C52.8841 50.0534 53.4831 50.6519 54.0093 50.9378C54.2697 51.0794 54.5045 51.1399 54.6779 51.1645C54.7645 51.1768 54.8358 51.1801 54.8874 51.1801C54.9132 51.1801 54.9341 51.1793 54.9497 51.1784C54.9575 51.1779 54.9639 51.1774 54.9689 51.177L54.9754 51.1764L54.9778 51.1761L54.9789 51.176L54.9793 51.176C54.9795 51.1759 54.9797 51.1759 54.9511 50.9275ZM54.9511 50.9275L55.0112 51.1702L54.9956 51.1741L54.9797 51.1759L54.9511 50.9275Z" stroke="#89AFC6" stroke-width="0.5" stroke-miterlimit="10"/>
  <path d="M34.1331 64.7328C34.1331 64.733 34.1329 64.7334 34.1325 64.734C34.1322 64.7344 34.1319 64.7347 34.1317 64.7348C34.1316 64.7349 34.1316 64.7349 34.1316 64.7349C34.1319 64.7347 34.1319 64.7349 34.1306 64.7351L25.374 66.05C25.3735 66.0501 25.3731 66.0501 25.373 66.0501C25.3728 66.0501 25.3724 66.0499 25.3719 66.0495C25.3713 66.0491 25.371 66.0487 25.3709 66.0486C25.3709 66.0485 25.3708 66.0481 25.3707 66.0476L25.3316 65.7871C25.3315 65.7862 25.3315 65.7859 25.3315 65.7859C25.3315 65.7859 25.3315 65.786 25.3315 65.7861C25.3315 65.7861 25.3315 65.7861 25.3315 65.7861C25.3315 65.7861 25.3316 65.7856 25.3321 65.7849C25.3325 65.7844 25.3329 65.7841 25.333 65.784C25.3332 65.7839 25.3335 65.7839 25.334 65.7838L34.0906 64.4689C34.0912 64.4688 34.0915 64.4688 34.0916 64.4688M34.1331 64.7328C34.1332 64.7328 34.1332 64.7328 34.1332 64.7328C34.1331 64.733 34.1331 64.7331 34.1331 64.7328ZM34.1331 64.7328C34.1331 64.7327 34.1331 64.7324 34.133 64.7318L34.0939 64.4713C34.0937 64.47 34.0936 64.47 34.0937 64.4703C34.0938 64.4703 34.0937 64.4702 34.0934 64.47C34.0933 64.4698 34.0931 64.4696 34.0928 64.4694C34.0922 64.469 34.0918 64.4688 34.0917 64.4688C34.0917 64.4688 34.0916 64.4688 34.0916 64.4688M34.0916 64.4688C34.0919 64.4688 34.0918 64.4688 34.0916 64.4687C34.0916 64.4687 34.0916 64.4687 34.0916 64.4688Z" fill="white" stroke="#89AFC6"/>
  <path d="M25.8425 68.2757L40.0105 66.1482C40.084 66.1371 40.1525 66.1878 40.1636 66.2613C40.1746 66.3348 40.124 66.4034 40.0505 66.4144L25.8824 68.542C25.8089 68.553 25.7404 68.5023 25.7293 68.4288C25.7183 68.3553 25.7689 68.2867 25.8425 68.2757Z" fill="white" stroke="#89AFC6"/>
</svg>