<svg version="1.2" xmlns="http://www.w3.org/2000/svg" viewBox="0 0 393 162" width="393" height="162">
	<title>header-svg</title>
	<defs>
		<clipPath clipPathUnits="userSpaceOnUse" id="cp1">
			<path d="m0 0h393v162h-393z"/>
		</clipPath>
		<linearGradient id="g1" x2="1" gradientUnits="userSpaceOnUse" gradientTransform="matrix(-570.503,2.91,-1.212,-237.58,435.5,89.5)">
			<stop offset="0" stop-color="#005f8e"/>
			<stop offset="1" stop-color="#00b384"/>
		</linearGradient>
		<linearGradient id="g2" x2="1" gradientUnits="userSpaceOnUse" gradientTransform="matrix(0,190.342,-190.598,0,18.667,13.929)">
			<stop offset="0" stop-color="#ffffff"/>
			<stop offset="1" stop-color="#ccdde6"/>
		</linearGradient>
		<linearGradient id="g3" x2="1" gradientUnits="userSpaceOnUse" gradientTransform="matrix(0,2588.295,-2591.35,0,20.437,-2080.49)">
			<stop offset="0" stop-color="#ffffff"/>
			<stop offset="1" stop-color="#ccdde6"/>
		</linearGradient>
	</defs>
	<style>
		.s0 { fill: url(#g1) } 
		.s1 { opacity: .3;fill: url(#g2) } 
		.s2 { opacity: .2;fill: none;stroke: url(#g3);stroke-miterlimit:10 } 
	</style>
	<g id="Clip-Path" clip-path="url(#cp1)">
		<g>
			<path class="s0" d="m0 0h393v162h-393z"/>
			<path class="s1" d="m17.5 14.3c-36.1 46-95.5 58.4-95.5 58.4 19.9 127.4 95.5 132.2 95.5 132.2 0 0 75.6-4.8 95.5-132.2 0 0-63.2-14.1-95.5-58.4z"/>
			<path fill-rule="evenodd" class="s2" d="m20.4-12c-45.5 58.1-120.4 73.7-120.4 73.7 25.1 160.8 120.4 166.9 120.4 166.9 0 0 95.4-6.1 120.5-166.9 0 0-79.7-17.8-120.5-73.7z"/>
		</g>
	</g>
</svg>