<svg xmlns="http://www.w3.org/2000/svg" width="90" height="27" viewBox="0 0 90 27" fill="none">
  <g clip-path="url(#clip0_213_40070)">
    <path d="M7.19343 10.8786H6.2173V11.1465C6.2173 11.5147 6.11913 11.8356 5.92278 12.109C5.73204 12.3824 5.46838 12.5916 5.13178 12.7368C4.8008 12.8819 4.43055 12.9543 4.02102 12.9543C3.58906 12.9543 3.19917 12.8734 2.85136 12.7116C2.50354 12.5554 2.22865 12.3378 2.0267 12.0588C1.83035 11.7798 1.73218 11.4673 1.73218 11.1213C1.73218 10.7364 1.84157 9.89099 2.06036 8.58529L2.8177 8.62714C2.73355 9.15723 2.66062 9.65662 2.59891 10.1254C2.54281 10.5885 2.51476 10.8982 2.51476 11.0544C2.51476 11.2776 2.57928 11.4785 2.7083 11.6571C2.83733 11.8412 3.01405 11.9835 3.23844 12.0839C3.46844 12.1899 3.72089 12.2429 3.99578 12.2429C4.39969 12.2429 4.73629 12.1341 5.00556 11.9165C5.28045 11.7045 5.41789 11.4171 5.41789 11.0544V4.91931H6.2173V10.1672H7.19343V10.8786ZM7.19705 10.1672H9.30078V10.8786H7.19705V10.1672ZM14.5264 10.1672V10.8786H9.30078V10.1672H10.3947C10.2657 9.84914 10.2012 9.40275 10.2012 8.82802C10.2012 8.27565 10.2685 7.84875 10.4031 7.54746C10.5378 7.24054 10.7509 7.02294 11.0426 6.89461C11.3399 6.76628 11.7523 6.70209 12.2796 6.70209C12.7172 6.70209 13.1127 6.72165 13.4661 6.76065L13.7606 6.79414V10.1672H14.5264ZM11.0006 8.88665C11.0006 9.24928 11.0258 9.5255 11.0763 9.71524C11.1268 9.89935 11.1913 10.05 11.2699 10.1672H12.9612V7.43027C12.6134 7.40235 12.3694 7.38843 12.2291 7.38843C11.8925 7.38843 11.6373 7.43585 11.4634 7.53068C11.2895 7.62558 11.1688 7.77898 11.1016 7.99107C11.0342 8.20309 11.0006 8.5016 11.0006 8.88665ZM11.1352 5.10345H11.8505V5.91533H11.1352V5.10345ZM12.2628 5.10345H12.9696V5.91533H12.2628V5.10345ZM16.5804 6.69373V10.8786H14.5272V10.1672H15.781V6.69373H16.5804ZM15.8062 5.09508H16.572V5.91533H15.8062V5.09508Z" fill="#606161"/>
    <path d="M2.59009 16.45H3.36425V16.7263C3.60548 16.5924 3.82427 16.4975 4.02061 16.4417C4.21696 16.3859 4.42453 16.358 4.64331 16.358C4.99674 16.358 5.27443 16.4278 5.47638 16.5672C5.67834 16.7068 5.82139 16.9244 5.90554 17.2201C5.98969 17.5102 6.03177 17.9064 6.03177 18.4086V20.635H5.24918V18.4254C5.24918 18.0738 5.22674 17.8032 5.18187 17.6135C5.1426 17.4182 5.06406 17.2787 4.94625 17.195C4.83405 17.1057 4.66856 17.061 4.44977 17.061C4.15245 17.061 3.8411 17.1252 3.51572 17.2536L3.37267 17.3205V20.635H2.59009V16.45ZM8.10175 20.727C7.70342 20.727 7.40051 20.6154 7.19295 20.3923C6.98539 20.1691 6.8816 19.8482 6.8816 19.4297C6.8816 19.0168 6.98819 18.7155 7.20136 18.5258C7.41452 18.3305 7.75396 18.2105 8.21956 18.1658L9.41447 18.0571V17.7307C9.41447 17.4851 9.36119 17.3093 9.25458 17.2034C9.14803 17.0917 8.99094 17.036 8.78337 17.036C8.31211 17.036 7.76797 17.0695 7.15088 17.1364L7.12563 16.5672C7.72029 16.4278 8.27284 16.358 8.78337 16.358C9.27704 16.358 9.63609 16.4696 9.86046 16.6928C10.0849 16.9104 10.197 17.2563 10.197 17.7307V19.7478C10.2083 19.8594 10.2447 19.9459 10.3065 20.0073C10.3738 20.063 10.4775 20.1021 10.6178 20.1244L10.5926 20.727C10.3513 20.727 10.1466 20.6992 9.97828 20.6433C9.80999 20.5931 9.6613 20.5122 9.53228 20.4006C9.05542 20.6183 8.57861 20.727 8.10175 20.727ZM8.24483 20.0742C8.58701 20.0742 8.91799 20.0212 9.23777 19.9152L9.41447 19.8566V18.6262L8.32057 18.7266C8.10175 18.749 7.93906 18.8159 7.83251 18.9275C7.73149 19.0336 7.68102 19.1926 7.68102 19.4046C7.68102 19.851 7.86898 20.0742 8.24483 20.0742ZM13.9156 20.4592C13.7137 20.5541 13.523 20.6211 13.3434 20.6601C13.1639 20.7047 12.9732 20.727 12.7712 20.727C12.2158 20.727 11.8147 20.5596 11.5679 20.2249C11.3211 19.8901 11.1976 19.3349 11.1976 18.5593C11.1976 18.0124 11.2622 17.58 11.3912 17.2619C11.5202 16.9439 11.7306 16.7151 12.0223 16.5756C12.314 16.4305 12.7123 16.358 13.2172 16.358L14.6982 16.45V22.4596H13.9156V20.4592ZM12.948 20.024C13.2172 20.024 13.4949 19.9738 13.781 19.8733L13.9156 19.8231V17.0862C13.6127 17.0527 13.3799 17.036 13.2172 17.036C12.9031 17.036 12.6562 17.089 12.4767 17.195C12.2972 17.301 12.171 17.4656 12.098 17.6888C12.0251 17.9064 11.9886 18.1993 11.9886 18.5676C11.9886 19.0977 12.0616 19.4744 12.2074 19.6976C12.3533 19.9152 12.6001 20.024 12.948 20.024ZM15.9121 14.6757H16.6947V20.635H15.9121V14.6757Z" fill="#606161"/>
    <path d="M22.0396 6.69373V19.2485" stroke="#A4A4A4" stroke-width="0.845032"/>
    <path d="M31.5349 12.4326H30.5239V13.5015H31.5349V12.4326Z" fill="#606161"/>
    <path d="M37.5952 3.31592H36.5842V4.38475H37.5952V3.31592Z" fill="#606161"/>
    <path d="M36.0114 3.31592H35.0005V4.38475H36.0114V3.31592Z" fill="#606161"/>
    <path d="M33.1208 12.4326H32.1099V13.5015H33.1208V12.4326Z" fill="#606161"/>
    <path d="M49.968 10.239H48.957V11.3079H49.968V10.239Z" fill="#606161"/>
    <path d="M51.8301 7.04874C51.8301 6.42845 51.6155 5.94194 51.1865 5.58747C50.7573 5.23481 50.1809 5.05757 49.4573 5.05757C49.0191 5.05757 48.4663 5.13715 47.799 5.29811L47.9099 6.11918C48.2554 6.07577 48.5609 6.04141 48.8282 6.01247C49.0936 5.98534 49.3064 5.97088 49.4682 5.97088C50.3701 5.97088 50.821 6.33077 50.821 7.04874V8.76325H46.1044V7.11386C46.1044 6.80099 46.0154 6.11556 45.8353 5.05757L44.8335 5.21491C44.908 5.60917 44.9698 5.98715 45.0189 6.35249C45.068 6.71779 45.0935 6.97098 45.0935 7.11207V8.76146H43.8153C43.6661 8.76146 43.5152 8.69992 43.3607 8.57698C43.4352 8.28758 43.4716 7.93856 43.4716 7.52621V5.51694H42.4607V7.52621C42.4607 7.88792 42.4425 8.15559 42.4043 8.32738C42.3679 8.49917 42.2988 8.61493 42.2006 8.67281C42.1025 8.73069 41.9497 8.7596 41.7461 8.7596H40.8661V5.51513H39.8551V8.7596H37.5932V5.05396H33.3494C32.6512 5.05396 32.1093 5.20768 31.7239 5.51513C31.3384 5.82258 31.1438 6.27654 31.1438 6.87875C31.1438 7.2477 31.2221 7.53525 31.3802 7.74139C31.5384 7.94759 31.7548 8.10855 32.0294 8.2261C32.3039 8.34366 32.7439 8.49737 33.3494 8.68729C33.7021 8.79216 33.9585 8.8844 34.1185 8.96401C34.2785 9.04356 34.3913 9.14304 34.4567 9.26419C34.5222 9.38354 34.5549 9.55538 34.5549 9.77601C34.5549 10.6242 34.1476 11.0474 33.3312 11.0474H30.7093C30.2274 11.0474 29.8383 10.9317 29.542 10.702C29.2456 10.4723 29.0965 10.1757 29.0965 9.81217C29.0965 9.54814 29.1638 8.9676 29.3002 8.0706L28.3092 7.93311C28.1619 8.84825 28.0874 9.48122 28.0874 9.8321C28.0874 10.2372 28.2019 10.6025 28.431 10.9244C28.6601 11.2463 28.9747 11.4995 29.3765 11.6804C29.7783 11.8612 30.222 11.9517 30.7111 11.9517H33.3331C33.7967 11.9517 34.1967 11.8612 34.5331 11.6804C34.8695 11.4995 35.1258 11.2463 35.3022 10.9244C35.4786 10.6025 35.5658 10.2245 35.5658 9.79588C35.5658 9.40347 35.4895 9.08157 35.3385 8.83197C35.1877 8.58237 34.9749 8.38526 34.704 8.23694C34.4312 8.08868 34.0767 7.95118 33.6385 7.82279L33.3331 7.73959C33.0239 7.6528 32.7948 7.58044 32.6421 7.51897C32.4912 7.45749 32.3712 7.3707 32.2857 7.26033C32.1985 7.15001 32.1566 6.9963 32.1566 6.7992C32.1566 6.51704 32.2512 6.30545 32.4384 6.16801C32.6275 6.03056 32.9221 5.96002 33.324 5.96002H36.5859V9.6657H41.7479C42.217 9.6657 42.5879 9.56981 42.8607 9.37995C43.1698 9.56981 43.4879 9.6657 43.8153 9.6657H51.8319V7.04874H51.8301Z" fill="#606161"/>
    <path d="M59.2525 3.14062V8.76335H56.9178V5.05766H54.8232C54.285 5.05766 53.8686 5.13904 53.5722 5.30181C53.2759 5.46458 53.065 5.71054 52.9413 6.03969C52.8177 6.36881 52.7559 6.81013 52.7559 7.3617C52.7559 7.91333 52.8177 8.35639 52.9413 8.68374C53.065 9.01289 53.2741 9.25883 53.5722 9.42164C53.8686 9.58439 54.285 9.6658 54.8232 9.6658H55.9069V9.80323C55.9069 10.2336 55.825 10.5447 55.6614 10.7382C55.4978 10.9317 55.2396 11.0294 54.8869 11.0294C54.5541 11.0294 54.1359 10.9733 53.6359 10.863L53.4232 11.7474C54.0104 11.8703 54.4978 11.9319 54.8869 11.9319C55.5468 11.9319 56.0505 11.742 56.3978 11.3658C56.7433 10.9878 56.916 10.467 56.916 9.80323V9.6658H60.2616V3.14062H59.2507H59.2525ZM55.9069 8.76335H54.8232C54.5087 8.76335 54.2796 8.73258 54.1377 8.67111C53.9959 8.60958 53.8977 8.48119 53.8468 8.28767C53.7941 8.09416 53.7687 7.78488 53.7687 7.3617C53.7687 6.93852 53.7941 6.62924 53.8468 6.43573C53.8995 6.24221 53.9959 6.11384 54.1377 6.05415C54.2796 5.99266 54.5087 5.96192 54.8232 5.96192H55.9069V8.76335Z" fill="#606161"/>
    <path d="M29.6119 15.7045H28.5754V22.0198H32.1338V21.0974H29.6119V15.7045Z" fill="#606161"/>
    <path d="M37.0779 15.9775C36.7015 15.728 36.1888 15.605 35.5396 15.605C34.8906 15.605 34.3778 15.7298 34.0014 15.9775C33.625 16.2271 33.3559 16.5906 33.196 17.0699C33.0359 17.5492 32.9541 18.1568 32.9541 18.8947C32.9541 19.6326 33.0323 20.2366 33.1905 20.7068C33.3487 21.177 33.6141 21.5297 33.9924 21.7666C34.3687 22.0035 34.8851 22.1211 35.5396 22.1211C36.1942 22.1211 36.7015 22.0035 37.0779 21.7666C37.4543 21.5297 37.7216 21.1788 37.8797 20.7105C38.0379 20.2438 38.1161 19.638 38.1161 18.8947C38.1161 18.1514 38.0379 17.5492 37.8797 17.0699C37.7216 16.5906 37.4543 16.2271 37.0779 15.9775ZM36.9161 20.2366C36.8324 20.5658 36.6833 20.8117 36.467 20.9745C36.2506 21.1372 35.9415 21.2186 35.5396 21.2186C35.1378 21.2186 34.8269 21.1354 34.6087 20.9691C34.3887 20.8027 34.2378 20.5549 34.1542 20.2276C34.0705 19.8984 34.0287 19.4553 34.0287 18.8947C34.0287 18.3341 34.0723 17.8928 34.1578 17.5492C34.245 17.2055 34.396 16.9451 34.6124 16.7697C34.8287 16.5942 35.1378 16.5074 35.5396 16.5074C35.9415 16.5074 36.2433 16.5961 36.4615 16.7751C36.6815 16.9541 36.8324 17.2128 36.9161 17.5545C36.9997 17.8964 37.0415 18.3431 37.0415 18.8965C37.0415 19.4499 36.9997 19.9093 36.9161 20.2384V20.2366Z" fill="#606161"/>
    <path d="M41.0905 16.7335C41.316 16.5888 41.6415 16.5165 42.0688 16.5165C42.5997 16.5165 43.2543 16.5689 44.0343 16.6738L44.0707 15.8527C43.7798 15.7913 43.4288 15.7352 43.0179 15.6827C42.607 15.6303 42.2379 15.605 41.9106 15.605C41.287 15.605 40.7924 15.7225 40.4287 15.9559C40.0632 16.1891 39.8032 16.5436 39.6451 17.0156C39.4869 17.4895 39.4087 18.1062 39.4087 18.8675C39.4087 19.629 39.4833 20.2095 39.6305 20.6779C39.7778 21.1481 40.0378 21.5062 40.4087 21.7521C40.7797 21.9981 41.2924 22.1211 41.947 22.1211C42.2197 22.1211 42.5615 22.0976 42.9761 22.0524C43.3907 22.0072 43.7543 21.9583 44.0689 21.9095V18.7011H42.2615V19.6145H43.0397V21.1445C42.6452 21.1933 42.3106 21.2186 42.0397 21.2186C41.6142 21.2186 41.2888 21.1427 41.067 20.9926C40.8451 20.8425 40.6923 20.6001 40.6088 20.2691C40.5251 19.9364 40.4833 19.4698 40.4833 18.8675C40.4833 18.2653 40.5287 17.7806 40.6178 17.4479C40.7069 17.1169 40.8651 16.8782 41.0905 16.7335Z" fill="#606161"/>
    <path d="M46.7638 15.7045H45.7256V22.018H46.7638V15.7045Z" fill="#606161"/>
    <path d="M51.7818 18.7428C51.5291 18.6053 51.1673 18.4715 50.6982 18.3413C50.2909 18.2237 49.9945 18.1297 49.809 18.0555C49.6236 17.9814 49.489 17.8892 49.4054 17.7789C49.3217 17.6685 49.2799 17.5184 49.2799 17.3267C49.2799 16.7733 49.669 16.4966 50.4472 16.4966C50.7691 16.4966 51.38 16.5491 52.2819 16.6539L52.3654 15.8147C52.0564 15.7587 51.7109 15.7081 51.3273 15.6628C50.9436 15.6176 50.6199 15.5941 50.3545 15.5941C49.6927 15.5941 49.1763 15.7424 48.8017 16.0372C48.4272 16.332 48.2417 16.7878 48.2417 17.4009C48.2417 17.7644 48.309 18.0592 48.4417 18.2852C48.5744 18.5131 48.7817 18.6994 49.0636 18.8476C49.3454 18.996 49.7254 19.1298 50.2072 19.2528C50.5472 19.3396 50.8054 19.4209 50.98 19.4969C51.1564 19.5747 51.2818 19.6651 51.3545 19.7736C51.4291 19.8821 51.4654 20.025 51.4654 20.2022C51.4654 20.8714 51.0818 21.2078 50.3163 21.2078C49.9272 21.2078 49.2908 21.1553 48.4071 21.0505L48.3053 21.8715C48.6453 21.933 49.0072 21.9891 49.3945 22.0415C49.7799 22.094 50.109 22.1193 50.3817 22.1193C51.0364 22.1193 51.5546 21.9547 51.9346 21.6256C52.3145 21.2964 52.5037 20.8009 52.5037 20.1371C52.5037 19.7809 52.4473 19.4933 52.3328 19.2745C52.2182 19.0556 52.0345 18.8784 51.7818 18.7392V18.7428Z" fill="#606161"/>
    <path d="M53.3708 16.6268H55.1782V22.0198H56.2164V16.6268H58.0056V15.7045H53.3708V16.6268Z" fill="#606161"/>
    <path d="M60.2621 15.7045H59.2239V22.018H60.2621V15.7045Z" fill="#606161"/>
    <path d="M77.5451 0.0779795C75.3979 2.93725 72.5996 4.81089 70.2415 5.99366V20.4184C73.6907 24.9271 77.5451 25.1857 77.5451 25.1857C77.5451 25.1857 81.4001 24.9271 84.8493 20.4184V5.99728C82.4002 4.79642 79.5161 2.90289 77.5451 0.0761719V0.0779795ZM77.4088 2.33502H77.6832V5.97557H77.4088V2.33502ZM83.729 19.2664C82.1693 18.4055 80.609 17.5465 78.9964 16.6585C78.5782 17.8901 78.1674 19.1036 77.7542 20.3189L77.6907 20.3045V12.1933L77.6179 12.1752C77.5071 12.4917 77.3944 12.8064 77.2874 13.1247C76.9071 14.2532 76.5399 15.3871 76.1416 16.5084C76.0744 16.6983 75.907 16.8972 75.7308 16.9967C74.3759 17.7672 73.0085 18.514 71.5777 19.2121C73.5961 15.7416 75.6144 12.2729 77.6851 8.71365C79.7508 12.2656 81.771 15.7362 83.7912 19.2067L83.7309 19.2682L83.729 19.2664Z" fill="url(#paint0_linear_213_40070)"/>
    <path d="M85.6726 6.38428V19.2447C87.3219 16.6802 88.7889 13.0143 89.5706 7.77138C89.5706 7.77138 87.887 7.37717 85.6726 6.38428Z" fill="url(#paint1_linear_213_40070)"/>
    <path d="M69.4198 19.2446V6.38782C67.1849 7.40788 65.5212 7.77139 65.5212 7.77139C66.3029 13.0143 67.7705 16.682 69.4198 19.2446Z" fill="url(#paint2_linear_213_40070)"/>
  </g>
  <defs>
    <linearGradient id="paint0_linear_213_40070" x1="88.5767" y1="12.6309" x2="66.7101" y2="12.6309" gradientUnits="userSpaceOnUse">
      <stop stop-color="#00B384"/>
      <stop offset="1" stop-color="#005F8E"/>
    </linearGradient>
    <linearGradient id="paint1_linear_213_40070" x1="88.576" y1="12.8136" x2="66.71" y2="12.8136" gradientUnits="userSpaceOnUse">
      <stop stop-color="#00B384"/>
      <stop offset="1" stop-color="#005F8E"/>
    </linearGradient>
    <linearGradient id="paint2_linear_213_40070" x1="88.5766" y1="12.8153" x2="66.7106" y2="12.8153" gradientUnits="userSpaceOnUse">
      <stop stop-color="#00B384"/>
      <stop offset="1" stop-color="#005F8E"/>
    </linearGradient>
    <clipPath id="clip0_213_40070">
      <rect width="89" height="26" fill="white" transform="translate(0.5 0.5)"/>
    </clipPath>
  </defs>
</svg>